<svg width="60" height="30" viewBox="0 0 60 30" fill="none" xmlns="http://www.w3.org/2000/svg">
<path fill-rule="evenodd" clip-rule="evenodd" d="M32.4302 0C31.6903 0 30.9694 0.0676773 30.2678 0.201875V19.8676C30.2678 20.7891 30.3393 21.4606 30.4817 21.8829C30.6229 22.3052 30.8413 22.6459 31.1357 22.905C31.4296 23.1641 31.8041 23.3515 32.2598 23.4667C32.7149 23.5818 33.2557 23.639 33.8818 23.639C34.5267 23.639 35.2191 23.5141 35.9595 23.2648V3.02292C35.9595 1.00764 34.7829 0 32.4302 0ZM6.73608 5.62008H0.137753C0.0455335 4.7927 0 4.03413 0 3.34437C0 2.70085 0.166572 2.12036 0.498563 1.60347C0.830554 1.08658 1.28358 0.68995 1.8565 0.414159C2.42884 0.138368 3.11645 0.000761289 3.91819 0.000761289H20.1402C20.2313 0.828135 20.278 1.63296 20.278 2.41408C20.278 3.42589 19.9512 4.21279 19.2987 4.77594C18.6457 5.33966 17.7229 5.62066 16.5315 5.62066H13.6791V23.1343H6.73608V5.62008ZM28.9781 21.749C28.9018 21.182 28.8639 20.6579 28.8639 20.1767H28.865V14.5489C28.865 12.6061 28.3741 11.1967 27.3935 10.3213C26.4118 9.44584 24.8255 9.00811 22.6351 9.00811C21.7206 9.00811 20.8249 9.09044 19.9488 9.25335C19.0721 9.41685 18.3762 9.62382 17.8624 9.8737C17.329 10.1439 16.9524 10.403 16.7337 10.6529C16.5143 10.9034 16.4053 11.1915 16.4053 11.5185C16.4053 11.7689 16.5046 12.1052 16.705 12.5284C16.9053 12.9517 17.1671 13.3656 17.4909 13.7697C18.3097 13.365 19.0434 13.0769 19.6916 12.9035C20.3392 12.7302 20.9868 12.6438 21.635 12.6438C22.3016 12.6438 22.7678 12.7447 23.0347 12.9465C23.3011 13.1488 23.4349 13.4613 23.4349 13.8845V14.2886C20.9581 14.2886 19.0342 14.717 17.662 15.5728C16.2904 16.4291 15.6043 17.6646 15.6043 19.281C15.6043 20.6469 16.0045 21.7049 16.8049 22.4552C17.6046 23.2054 18.7098 23.5805 20.1193 23.5805C20.9202 23.5805 21.6488 23.4697 22.3056 23.2489C22.963 23.0285 23.5009 22.7056 23.92 22.2824C24.1681 23.1677 25.0637 23.6101 26.6064 23.6101C27.1972 23.6101 27.6731 23.5857 28.0354 23.5382C28.3965 23.49 28.8157 23.3886 29.2928 23.2349C29.159 22.8123 29.0539 22.3166 28.9781 21.749ZM21.477 17.4634C21.8864 17.1561 22.5673 16.9538 23.5204 16.8575V19.2821C23.5204 19.5511 23.3958 19.7726 23.1483 19.9453C22.9003 20.1187 22.5857 20.2051 22.205 20.2051C21.7859 20.2051 21.457 20.0845 21.2193 19.8439C20.981 19.6033 20.8627 19.2624 20.8627 18.8194C20.8627 18.2234 21.0671 17.7712 21.477 17.4634ZM38.2361 0.201875C38.9376 0.0676773 39.6586 0 40.3984 0C42.7511 0 43.9277 1.00764 43.9277 3.02292V23.2648C43.1873 23.5141 42.495 23.639 41.8501 23.639C41.224 23.639 40.6831 23.5818 40.228 23.4667C39.7724 23.3515 39.3979 23.1641 39.104 22.905C38.8095 22.6459 38.5911 22.3052 38.4499 21.8829C38.3076 21.4606 38.2361 20.7891 38.2361 19.8676V0.201875ZM55.9079 25.154C56.1248 24.6042 56.2904 24.111 56.4037 23.6749L60 10.0208C59.0938 9.66079 58.1398 9.48019 57.1385 9.48019C56.2699 9.48019 55.5567 9.72651 55 10.2197C54.4427 10.713 54.0699 11.4142 53.8809 12.3246L52.6343 18.6113H52.5216L51.275 12.3532C50.9159 10.4381 49.7916 9.48019 47.9036 9.48019C46.7697 9.48019 45.7781 9.64136 44.9282 9.96369L49.1211 23.0777H51.3598C51.1902 23.9498 50.9204 24.5614 50.5527 24.9123C50.1844 25.2632 49.6505 25.4386 48.9515 25.4386C48.2337 25.4386 47.5825 25.2489 46.9974 24.87C46.3359 26.0456 46.0058 26.9652 46.0058 27.6293C46.0058 28.3499 46.279 28.8855 46.8272 29.2364C47.3747 29.5873 48.2246 29.7627 49.3767 29.7627C50.7935 29.7627 51.9735 29.5016 52.9184 28.9803C53.8627 28.4585 54.6562 27.6195 55.2983 26.4628C55.4872 26.1399 55.6899 25.7038 55.9079 25.154Z" fill="black"/>
</svg>
