<svg width="60" height="30" viewBox="0 0 94 47" fill="none" xmlns="http://www.w3.org/2000/svg">
<path fill-rule="evenodd" clip-rule="evenodd" d="M50.7697 0C49.6115 0 48.4829 0.105949 47.3846 0.316037V31.103C47.3846 32.5455 47.4965 33.5968 47.7194 34.2579C47.9405 34.919 48.2824 35.4523 48.7433 35.858C49.2034 36.2637 49.7897 36.5571 50.503 36.7373C51.2155 36.9175 52.0622 37.0072 53.0423 37.0072C54.0519 37.0072 55.1359 36.8116 56.295 36.4213V4.73241C56.295 1.57747 54.4529 0 50.7697 0ZM10.5454 8.79788H0.215654C0.0712832 7.50262 0 6.31507 0 5.23523C0 4.22781 0.26077 3.31904 0.780506 2.50984C1.30024 1.70064 2.00946 1.07972 2.90637 0.647962C3.80237 0.216208 4.87884 0.000783337 6.13396 0.000783337H31.5297C31.6723 1.29605 31.7454 2.55601 31.7454 3.77886C31.7454 5.36286 31.2338 6.59476 30.2123 7.47637C29.19 8.35889 27.7454 8.79879 25.8803 8.79879H21.4147V36.2165H10.5454V8.79788ZM45.3656 34.0483C45.246 33.1606 45.1867 32.3401 45.1867 31.5868H45.1885V22.7765C45.1885 19.735 44.42 17.5286 42.8849 16.1581C41.3479 14.7875 38.8645 14.1023 35.4356 14.1023C34.0038 14.1023 32.6016 14.2312 31.23 14.4862C29.8576 14.7422 28.7682 15.0662 27.9638 15.4574C27.1288 15.8803 26.5392 16.286 26.1967 16.6772C25.8534 17.0693 25.6826 17.5204 25.6826 18.0323C25.6826 18.4244 25.8381 18.9508 26.1518 19.6134C26.4655 20.276 26.8753 20.924 27.3822 21.5566C28.6639 20.9231 29.8126 20.472 30.8274 20.2006C31.8412 19.9293 32.8551 19.794 33.8698 19.794C34.9134 19.794 35.6432 19.9519 36.0611 20.2678C36.4782 20.5846 36.6876 21.0738 36.6876 21.7363V22.369C32.8101 22.369 29.7982 23.0397 27.6501 24.3793C25.5028 25.7199 24.4288 27.6541 24.4288 30.1845C24.4288 32.3229 25.0552 33.9793 26.3082 35.1538C27.5602 36.3283 29.2904 36.9155 31.497 36.9155C32.7508 36.9155 33.8914 36.7421 34.9196 36.3963C35.9488 36.0514 36.791 35.5459 37.4471 34.8833C37.8354 36.2693 39.2375 36.9618 41.6526 36.9618C42.5775 36.9618 43.3226 36.9237 43.8897 36.8492C44.4551 36.7739 45.1112 36.6151 45.8581 36.3745C45.6487 35.7129 45.4842 34.9369 45.3656 34.0483ZM33.6226 27.3391C34.2634 26.8581 35.3294 26.5413 36.8214 26.3906V30.1863C36.8214 30.6075 36.6264 30.9542 36.239 31.2247C35.8507 31.496 35.3581 31.6313 34.7622 31.6313C34.1061 31.6313 33.5911 31.4425 33.219 31.0658C32.846 30.6892 32.6608 30.1555 32.6608 29.462C32.6608 28.529 32.9808 27.8211 33.6226 27.3391ZM59.859 0.316037C60.9572 0.105949 62.0859 0 63.2441 0C66.9273 0 68.7693 1.57747 68.7693 4.73241V36.4213C67.6102 36.8116 66.5263 37.0072 65.5167 37.0072C64.5366 37.0072 63.6899 36.9175 62.9774 36.7373C62.264 36.5571 61.6778 36.2637 61.2177 35.858C60.7567 35.4523 60.4148 34.919 60.1938 34.2579C59.9709 33.5968 59.859 32.5455 59.859 31.103V0.316037ZM87.5244 39.3789C87.8639 38.5182 88.1232 37.746 88.3006 37.0634L93.9306 15.6877C92.512 15.1241 91.0185 14.8413 89.451 14.8413C88.0911 14.8413 86.9746 15.227 86.1031 15.9991C85.2307 16.7712 84.647 17.8691 84.3511 19.2943L82.3996 29.1362H82.2231L80.2716 19.3391C79.7093 16.3409 77.9493 14.8413 74.9935 14.8413C73.2184 14.8413 71.6661 15.0936 70.3356 15.5983L76.8996 36.1284H80.4044C80.1388 37.4937 79.7164 38.4511 79.1408 39.0004C78.5642 39.5498 77.7283 39.8245 76.6341 39.8245C75.5104 39.8245 74.4909 39.5274 73.5749 38.9342C72.5394 40.7747 72.0225 42.2142 72.0225 43.2539C72.0225 44.3821 72.4503 45.2205 73.3084 45.7698C74.1657 46.3192 75.4961 46.5939 77.2997 46.5939C79.5177 46.5939 81.365 46.185 82.8443 45.369C84.3226 44.5521 85.5648 43.2387 86.57 41.4278C86.8659 40.9223 87.1831 40.2396 87.5244 39.3789Z" fill="white"/>
</svg>
